<svg xmlns="http://www.w3.org/2000/svg" viewBox="0 0 1200 800">
  <rect width="1200" height="800" fill="#f8fafc" rx="15"/>
  <text x="600" y="40" font-family="Arial, sans-serif" font-size="28" font-weight="bold" text-anchor="middle" fill="#1e293b">Healthcare AI/ML System - Sequence Diagram</text>

  <!-- Lifelines -->
  <g transform="translate(150, 100)">
    <rect x="-50" y="0" width="100" height="40" fill="#f1f5f9" stroke="#94a3b8" rx="5"/>
    <text x="0" y="25" font-family="Arial, sans-serif" font-size="14" font-weight="bold" text-anchor="middle">User</text>
    <line x1="0" y1="40" x2="0" y2="600" stroke="#94a3b8" stroke-dasharray="5,5"/>
  </g>
  <g transform="translate(400, 100)">
    <rect x="-60" y="0" width="120" height="40" fill="#e0f2fe" stroke="#0ea5e9" rx="5"/>
    <text x="0" y="25" font-family="Arial, sans-serif" font-size="14" font-weight="bold" text-anchor="middle">Dashboard</text>
    <line x1="0" y1="40" x2="0" y2="600" stroke="#0ea5e9" stroke-dasharray="5,5"/>
  </g>
  <g transform="translate(650, 100)">
    <rect x="-60" y="0" width="120" height="40" fill="#eef2ff" stroke="#6366f1" rx="5"/>
    <text x="0" y="25" font-family="Arial, sans-serif" font-size="14" font-weight="bold" text-anchor="middle">Processor</text>
    <line x1="0" y1="40" x2="0" y2="600" stroke="#6366f1" stroke-dasharray="5,5"/>
  </g>
  <g transform="translate(900, 100)">
    <rect x="-60" y="0" width="120" height="40" fill="#ecfdf5" stroke="#10b981" rx="5"/>
    <text x="0" y="25" font-family="Arial, sans-serif" font-size="14" font-weight="bold" text-anchor="middle">AI Model</text>
    <line x1="0" y1="40" x2="0" y2="600" stroke="#10b981" stroke-dasharray="5,5"/>
  </g>

  <!-- Messages -->
  <g transform="translate(0, 180)" font-family="Arial, sans-serif" font-size="12">
    <line x1="150" y1="0" x2="400" y2="0" stroke="#334155" stroke-width="2" marker-end="url(#arrow)"/>
    <text x="275" y="-10" text-anchor="middle">1. Input Patient Data</text>
    
    <line x1="400" y1="50" x2="650" y2="50" stroke="#334155" stroke-width="2" marker-end="url(#arrow)"/>
    <text x="525" y="40" text-anchor="middle">2. Request Analysis</text>
    
    <line x1="650" y1="100" x2="900" y2="100" stroke="#334155" stroke-width="2" marker-end="url(#arrow)"/>
    <text x="775" y="90" text-anchor="middle">3. Extract Features</text>
    
    <line x1="900" y1="150" x2="650" y2="150" stroke="#334155" stroke-width="2" stroke-dasharray="5,5" marker-end="url(#arrow)"/>
    <text x="775" y="140" text-anchor="middle">4. Return Risk Score (92.86%)</text>
    
    <line x1="650" y1="200" x2="400" y2="200" stroke="#334155" stroke-width="2" stroke-dasharray="5,5" marker-end="url(#arrow)"/>
    <text x="525" y="190" text-anchor="middle">5. Update Visuals</text>
    
    <line x1="400" y1="250" x2="150" y2="250" stroke="#334155" stroke-width="2" stroke-dasharray="5,5" marker-end="url(#arrow)"/>
    <text x="275" y="240" text-anchor="middle">6. Display Results</text>
  </g>

  <defs>
    <marker id="arrow" markerWidth="10" markerHeight="10" refX="10" refY="5" orient="auto">
      <path d="M0,0 L10,5 L0,10 Z" fill="#334155"/>
    </marker>
  </defs>
</svg>
