<svg xmlns="http://www.w3.org/2000/svg" viewBox="0 0 1400 900">
  <!-- Title -->
  <text x="700" y="30" font-family="Arial, sans-serif" font-size="24" font-weight="bold" text-anchor="middle" fill="#1f2937">
    Healthcare AI/ML System - Sequence Diagram: Risk Prediction Workflow
  </text>
  
  <!-- Actors/Objects Headers -->
  <!-- User -->
  <g>
    <circle cx="100" cy="90" r="25" fill="none" stroke="#14b8a6" stroke-width="2"/>
    <line x1="100" y1="115" x2="100" y2="180" stroke="#14b8a6" stroke-width="2"/>
    <line x1="100" y1="140" x2="70" y2="170" stroke="#14b8a6" stroke-width="2"/>
    <line x1="100" y1="140" x2="130" y2="170" stroke="#14b8a6" stroke-width="2"/>
    <line x1="100" y1="180" x2="70" y2="220" stroke="#14b8a6" stroke-width="2"/>
    <line x1="100" y1="180" x2="130" y2="220" stroke="#14b8a6" stroke-width="2"/>
    <text x="100" y="245" font-family="Arial, sans-serif" font-size="14" font-weight="bold" text-anchor="middle" fill="#14b8a6">User</text>
  </g>
  
  <!-- Dashboard UI -->
  <rect x="250" y="80" width="140" height="60" fill="#e0f2fe" stroke="#0891b2" stroke-width="2"/>
  <text x="320" y="115" font-family="Arial, sans-serif" font-size="14" font-weight="bold" text-anchor="middle" fill="#0f172a">Dashboard UI</text>
  
  <!-- Data Processor -->
  <rect x="480" y="80" width="140" height="60" fill="#ddd6fe" stroke="#7c3aed" stroke-width="2"/>
  <text x="550" y="115" font-family="Arial, sans-serif" font-size="14" font-weight="bold" text-anchor="middle" fill="#0f172a">Data Processor</text>
  
  <!-- ML Model -->
  <rect x="710" y="80" width="140" height="60" fill="#fecaca" stroke="#dc2626" stroke-width="2"/>
  <text x="780" y="115" font-family="Arial, sans-serif" font-size="14" font-weight="bold" text-anchor="middle" fill="#0f172a">ML Model</text>
  
  <!-- Database -->
  <rect x="940" y="80" width="140" height="60" fill="#fef3c7" stroke="#f59e0b" stroke-width="2"/>
  <text x="1010" y="115" font-family="Arial, sans-serif" font-size="14" font-weight="bold" text-anchor="middle" fill="#0f172a">Database</text>
  
  <!-- Lifelines -->
  <line x1="100" y1="260" x2="100" y2="850" stroke="#9ca3af" stroke-width="2" stroke-dasharray="5,5"/>
  <line x1="320" y1="140" x2="320" y2="850" stroke="#9ca3af" stroke-width="2" stroke-dasharray="5,5"/>
  <line x1="550" y1="140" x2="550" y2="850" stroke="#9ca3af" stroke-width="2" stroke-dasharray="5,5"/>
  <line x1="780" y1="140" x2="780" y2="850" stroke="#9ca3af" stroke-width="2" stroke-dasharray="5,5"/>
  <line x1="1010" y1="140" x2="1010" y2="850" stroke="#9ca3af" stroke-width="2" stroke-dasharray="5,5"/>
  
  <!-- Interactions -->
  <!-- 1. User clicks Predict Button -->
  <line x1="100" y1="280" x2="320" y2="280" stroke="#14b8a6" stroke-width="2" marker-end="url(#arrowhead1)"/>
  <text x="210" y="270" font-family="Arial, sans-serif" font-size="12" text-anchor="middle" fill="#0f172a">1: Click Predict Button</text>
  
  <!-- Activation box for Dashboard -->
  <rect x="310" y="280" width="20" height="520" fill="#0891b2" opacity="0.3"/>
  
  <!-- 2. Submit Patient Data -->
  <line x1="330" y1="320" x2="550" y2="320" stroke="#0891b2" stroke-width="2" marker-end="url(#arrowhead2)"/>
  <text x="440" y="310" font-family="Arial, sans-serif" font-size="12" text-anchor="middle" fill="#0f172a">2: Submit Patient Data</text>
  
  <!-- Activation box for Data Processor -->
  <rect x="540" y="320" width="20" height="440" fill="#7c3aed" opacity="0.3"/>
  
  <!-- 3. Validate Input Data (self-call) -->
  <line x1="560" y1="360" x2="610" y2="360" stroke="#7c3aed" stroke-width="2"/>
  <line x1="610" y1="360" x2="610" y2="400" stroke="#7c3aed" stroke-width="2"/>
  <line x1="610" y1="400" x2="560" y2="400" stroke="#7c3aed" stroke-width="2" stroke-dasharray="5,5" marker-end="url(#arrowhead3)"/>
  <text x="650" y="380" font-family="Arial, sans-serif" font-size="12" fill="#0f172a">3: Validate</text>
  <text x="650" y="395" font-family="Arial, sans-serif" font-size="12" fill="#0f172a">Input Data</text>
  
  <!-- 4. Fetch Patient History -->
  <line x1="560" y1="440" x2="1010" y2="440" stroke="#7c3aed" stroke-width="2" marker-end="url(#arrowhead4)"/>
  <text x="785" y="430" font-family="Arial, sans-serif" font-size="12" text-anchor="middle" fill="#0f172a">4: Fetch Patient History</text>
  
  <!-- Activation box for Database -->
  <rect x="1000" y="440" width="20" height="60" fill="#f59e0b" opacity="0.3"/>
  
  <!-- 5. Return Patient Records -->
  <line x1="1010" y1="480" x2="560" y2="480" stroke="#f59e0b" stroke-width="2" stroke-dasharray="5,5" marker-end="url(#arrowhead5)"/>
  <text x="785" y="470" font-family="Arial, sans-serif" font-size="12" text-anchor="middle" fill="#0f172a">5: Return Patient Records</text>
  
  <!-- 6. Send Processed Data -->
  <line x1="560" y1="520" x2="780" y2="520" stroke="#7c3aed" stroke-width="2" marker-end="url(#arrowhead6)"/>
  <text x="670" y="510" font-family="Arial, sans-serif" font-size="12" text-anchor="middle" fill="#0f172a">6: Send Processed Data</text>
  
  <!-- Activation box for ML Model -->
  <rect x="770" y="520" width="20" height="180" fill="#dc2626" opacity="0.3"/>
  
  <!-- 7. Run Risk Prediction Algorithm (self-call) -->
  <line x1="790" y1="560" x2="840" y2="560" stroke="#dc2626" stroke-width="2"/>
  <line x1="840" y1="560" x2="840" y2="640" stroke="#dc2626" stroke-width="2"/>
  <line x1="840" y1="640" x2="790" y2="640" stroke="#dc2626" stroke-width="2" stroke-dasharray="5,5" marker-end="url(#arrowhead7)"/>
  <text x="880" y="595" font-family="Arial, sans-serif" font-size="12" fill="#0f172a">7: Run Risk</text>
  <text x="880" y="610" font-family="Arial, sans-serif" font-size="12" fill="#0f172a">Prediction</text>
  <text x="880" y="625" font-family="Arial, sans-serif" font-size="12" fill="#0f172a">Algorithm</text>
  
  <!-- 8. Return Risk Score -->
  <line x1="780" y1="680" x2="560" y2="680" stroke="#dc2626" stroke-width="2" stroke-dasharray="5,5" marker-end="url(#arrowhead8)"/>
  <text x="670" y="670" font-family="Arial, sans-serif" font-size="11" text-anchor="middle" fill="#0f172a">8: Return Risk Score</text>
  <text x="670" y="685" font-family="Arial, sans-serif" font-size="11" text-anchor="middle" fill="#0f172a">(92.86% confidence)</text>
  
  <!-- 9. Send Prediction Results -->
  <line x1="550" y1="720" x2="330" y2="720" stroke="#7c3aed" stroke-width="2" stroke-dasharray="5,5" marker-end="url(#arrowhead9)"/>
  <text x="440" y="710" font-family="Arial, sans-serif" font-size="12" text-anchor="middle" fill="#0f172a">9: Send Prediction Results</text>
  
  <!-- 10. Display Risk Analysis -->
  <line x1="320" y1="760" x2="100" y2="760" stroke="#0891b2" stroke-width="2" stroke-dasharray="5,5" marker-end="url(#arrowhead10)"/>
  <text x="210" y="750" font-family="Arial, sans-serif" font-size="12" text-anchor="middle" fill="#0f172a">10: Display Risk Analysis</text>
  
  <!-- Arrow markers -->
  <defs>
    <marker id="arrowhead1" markerWidth="10" markerHeight="10" refX="9" refY="3" orient="auto">
      <polygon points="0 0, 10 3, 0 6" fill="#14b8a6" />
    </marker>
    <marker id="arrowhead2" markerWidth="10" markerHeight="10" refX="9" refY="3" orient="auto">
      <polygon points="0 0, 10 3, 0 6" fill="#0891b2" />
    </marker>
    <marker id="arrowhead3" markerWidth="10" markerHeight="10" refX="9" refY="3" orient="auto">
      <polygon points="0 0, 10 3, 0 6" fill="#7c3aed" />
    </marker>
    <marker id="arrowhead4" markerWidth="10" markerHeight="10" refX="9" refY="3" orient="auto">
      <polygon points="0 0, 10 3, 0 6" fill="#7c3aed" />
    </marker>
    <marker id="arrowhead5" markerWidth="10" markerHeight="10" refX="9" refY="3" orient="auto">
      <polygon points="0 0, 10 3, 0 6" fill="#f59e0b" />
    </marker>
    <marker id="arrowhead6" markerWidth="10" markerHeight="10" refX="9" refY="3" orient="auto">
      <polygon points="0 0, 10 3, 0 6" fill="#7c3aed" />
    </marker>
    <marker id="arrowhead7" markerWidth="10" markerHeight="10" refX="9" refY="3" orient="auto">
      <polygon points="0 0, 10 3, 0 6" fill="#dc2626" />
    </marker>
    <marker id="arrowhead8" markerWidth="10" markerHeight="10" refX="9" refY="3" orient="auto">
      <polygon points="0 0, 10 3, 0 6" fill="#dc2626" />
    </marker>
    <marker id="arrowhead9" markerWidth="10" markerHeight="10" refX="9" refY="3" orient="auto">
      <polygon points="0 0, 10 3, 0 6" fill="#7c3aed" />
    </marker>
    <marker id="arrowhead10" markerWidth="10" markerHeight="10" refX="9" refY="3" orient="auto">
      <polygon points="0 0, 10 3, 0 6" fill="#0891b2" />
    </marker>
  </defs>
  
  <!-- Legend -->
  <rect x="50" y="820" width="1000" height="60" fill="#f9fafb" stroke="#9ca3af" stroke-width="2"/>
  <text x="550" y="845" font-family="Arial, sans-serif" font-size="14" font-weight="bold" text-anchor="middle" fill="#1f2937">Sequence Flow</text>
  <text x="60" y="865" font-family="Arial, sans-serif" font-size="11" fill="#374151">Solid arrows represent synchronous method calls | Dashed arrows represent return messages | Colored boxes show active object processing time</text>
</svg>
