<svg xmlns="http://www.w3.org/2000/svg" viewBox="0 0 1200 800">
  <!-- Title -->
  <text x="600" y="30" font-family="Arial, sans-serif" font-size="24" font-weight="bold" text-anchor="middle" fill="#1f2937">
    Healthcare AI/ML System - Use Case Diagram
  </text>
  
  <!-- System Boundary -->
  <rect x="300" y="80" width="600" height="650" fill="none" stroke="#4b5563" stroke-width="2" stroke-dasharray="5,5"/>
  <text x="600" y="105" font-family="Arial, sans-serif" font-size="18" font-weight="bold" text-anchor="middle" fill="#374151">
    HealthAI Pro System
  </text>
  
  <!-- Healthcare Professional Actor -->
  <circle cx="150" cy="200" r="25" fill="none" stroke="#14b8a6" stroke-width="2"/>
  <line x1="150" y1="225" x2="150" y2="290" stroke="#14b8a6" stroke-width="2"/>
  <line x1="150" y1="250" x2="120" y2="280" stroke="#14b8a6" stroke-width="2"/>
  <line x1="150" y1="250" x2="180" y2="280" stroke="#14b8a6" stroke-width="2"/>
  <line x1="150" y1="290" x2="120" y2="330" stroke="#14b8a6" stroke-width="2"/>
  <line x1="150" y1="290" x2="180" y2="330" stroke="#14b8a6" stroke-width="2"/>
  <text x="150" y="360" font-family="Arial, sans-serif" font-size="14" font-weight="bold" text-anchor="middle" fill="#14b8a6">
    Healthcare Professional
  </text>
  
  <!-- System Admin Actor -->
  <circle cx="1050" cy="200" r="25" fill="none" stroke="#f59e0b" stroke-width="2"/>
  <line x1="1050" y1="225" x2="1050" y2="290" stroke="#f59e0b" stroke-width="2"/>
  <line x1="1050" y1="250" x2="1020" y2="280" stroke="#f59e0b" stroke-width="2"/>
  <line x1="1050" y1="250" x2="1080" y2="280" stroke="#f59e0b" stroke-width="2"/>
  <line x1="1050" y1="290" x2="1020" y2="330" stroke="#f59e0b" stroke-width="2"/>
  <line x1="1050" y1="290" x2="1080" y2="330" stroke="#f59e0b" stroke-width="2"/>
  <text x="1050" y="360" font-family="Arial, sans-serif" font-size="14" font-weight="bold" text-anchor="middle" fill="#f59e0b">
    System Admin
  </text>
  
  <!-- Use Cases -->
  <!-- Row 1 -->
  <ellipse cx="450" cy="180" rx="120" ry="40" fill="#e0f2fe" stroke="#0891b2" stroke-width="2"/>
  <text x="450" y="188" font-family="Arial, sans-serif" font-size="13" text-anchor="middle" fill="#0f172a">View Dashboard</text>
  
  <ellipse cx="750" cy="180" rx="120" ry="40" fill="#e0f2fe" stroke="#0891b2" stroke-width="2"/>
  <text x="750" y="188" font-family="Arial, sans-serif" font-size="13" text-anchor="middle" fill="#0f172a">Analyze Patient Data</text>
  
  <!-- Row 2 -->
  <ellipse cx="450" cy="280" rx="120" ry="40" fill="#e0f2fe" stroke="#0891b2" stroke-width="2"/>
  <text x="450" y="288" font-family="Arial, sans-serif" font-size="13" text-anchor="middle" fill="#0f172a">Predict Health Risks</text>
  
  <ellipse cx="750" cy="280" rx="120" ry="40" fill="#e0f2fe" stroke="#0891b2" stroke-width="2"/>
  <text x="750" y="280" font-family="Arial, sans-serif" font-size="12" text-anchor="middle" fill="#0f172a">View High-Risk</text>
  <text x="750" y="295" font-family="Arial, sans-serif" font-size="12" text-anchor="middle" fill="#0f172a">Patients</text>
  
  <!-- Row 3 -->
  <ellipse cx="450" cy="380" rx="120" ry="40" fill="#e0f2fe" stroke="#0891b2" stroke-width="2"/>
  <text x="450" y="388" font-family="Arial, sans-serif" font-size="13" text-anchor="middle" fill="#0f172a">Monitor KPIs</text>
  
  <ellipse cx="750" cy="380" rx="120" ry="40" fill="#e0f2fe" stroke="#0891b2" stroke-width="2"/>
  <text x="750" y="388" font-family="Arial, sans-serif" font-size="13" text-anchor="middle" fill="#0f172a">Generate Reports</text>
  
  <!-- Row 4 - Admin Use Cases -->
  <ellipse cx="450" cy="520" rx="130" ry="40" fill="#fef3c7" stroke="#f59e0b" stroke-width="2"/>
  <text x="450" y="520" font-family="Arial, sans-serif" font-size="12" text-anchor="middle" fill="#0f172a">Manage Patient</text>
  <text x="450" y="535" font-family="Arial, sans-serif" font-size="12" text-anchor="middle" fill="#0f172a">Records</text>
  
  <ellipse cx="750" cy="520" rx="130" ry="40" fill="#fef3c7" stroke="#f59e0b" stroke-width="2"/>
  <text x="750" y="520" font-family="Arial, sans-serif" font-size="12" text-anchor="middle" fill="#0f172a">Configure System</text>
  <text x="750" y="535" font-family="Arial, sans-serif" font-size="12" text-anchor="middle" fill="#0f172a">Settings</text>
  
  <ellipse cx="600" cy="620" rx="100" ry="40" fill="#fef3c7" stroke="#f59e0b" stroke-width="2"/>
  <text x="600" y="628" font-family="Arial, sans-serif" font-size="13" text-anchor="middle" fill="#0f172a">Export Data</text>
  
  <!-- Connections - Healthcare Professional -->
  <line x1="180" y1="270" x2="330" y2="180" stroke="#14b8a6" stroke-width="2"/>
  <line x1="180" y1="270" x2="630" y2="180" stroke="#14b8a6" stroke-width="2"/>
  <line x1="180" y1="270" x2="330" y2="280" stroke="#14b8a6" stroke-width="2"/>
  <line x1="180" y1="270" x2="630" y2="280" stroke="#14b8a6" stroke-width="2"/>
  <line x1="180" y1="270" x2="330" y2="380" stroke="#14b8a6" stroke-width="2"/>
  <line x1="180" y1="270" x2="630" y2="380" stroke="#14b8a6" stroke-width="2"/>
  
  <!-- Connections - System Admin -->
  <line x1="1020" y1="290" x2="880" y2="520" stroke="#f59e0b" stroke-width="2"/>
  <line x1="1020" y1="290" x2="580" y2="520" stroke="#f59e0b" stroke-width="2"/>
  <line x1="1020" y1="380" x2="700" y2="620" stroke="#f59e0b" stroke-width="2"/>
  
  <!-- Legend -->
  <rect x="50" y="680" width="200" height="80" fill="#f9fafb" stroke="#9ca3af" stroke-width="1"/>
  <text x="150" y="705" font-family="Arial, sans-serif" font-size="14" font-weight="bold" text-anchor="middle" fill="#1f2937">Legend</text>
  <ellipse cx="80" cy="730" rx="30" ry="15" fill="#e0f2fe" stroke="#0891b2" stroke-width="1"/>
  <text x="130" y="735" font-family="Arial, sans-serif" font-size="11" fill="#374151">Healthcare Use Case</text>
  <ellipse cx="80" cy="755" rx="30" ry="15" fill="#fef3c7" stroke="#f59e0b" stroke-width="1"/>
  <text x="130" y="760" font-family="Arial, sans-serif" font-size="11" fill="#374151">Admin Use Case</text>
</svg>
